        <svg class="logo" width="90" height="90" viewBox="0 0 120 120" fill="none" xmlns="http://www.w3.org/2000/svg">
                            
                            <path d="M35 45 L85 45 L82 85 L38 85 Z" fill="#374151" stroke="#1BA94C" stroke-width="2.5" stroke-linejoin="round"></path>
                            <path d="M45 45 L45 38 C45 33 48 30 53 30 L67 30 C72 30 75 33 75 38 L75 45" fill="none" stroke="#1BA94C" stroke-width="2.5" stroke-linecap="round"></path>
                            <circle cx="75" cy="35" r="18" fill="#1BA94C" stroke="#374151" stroke-width="2"></circle>
                            <line x1="68" y1="30" x2="82" y2="30" stroke="#ffffff" stroke-width="2" stroke-linecap="round"></line>
                            <line x1="68" y1="35" x2="80" y2="35" stroke="#ffffff" stroke-width="2" stroke-linecap="round"></line>
                            <line x1="68" y1="40" x2="78" y2="40" stroke="#ffffff" stroke-width="2" stroke-linecap="round"></line>
                            <path d="M65 45 L60 50 L70 48 Z" fill="#1BA94C"></path>
                            <circle cx="50" cy="60" r="4" fill="#1BA94C"></circle>
                            <circle cx="65" cy="65" r="4" fill="#1BA94C"></circle>
                            <circle cx="55" cy="72" r="4" fill="#1BA94C"></circle>
                            
                            <defs>
                                <linearGradient id="gradientDark" x1="0%" y1="0%" x2="100%" y2="100%">
                                    <stop offset="0%" stop-color="#1f2937"></stop>
                                    <stop offset="100%" stop-color="#111827"></stop>
                                </linearGradient>
                            </defs>
                        </svg>